<svg xmlns="http://www.w3.org/2000/svg" width="128" height="128" viewBox="0 0 72 72"><defs><clipPath id="inkSilhouette"><g fill="#86afc9" stroke="#211820" stroke-width="3" stroke-linejoin="round"><path d="M24 8 Q36 25 48 8" fill="none" /><ellipse cx="36" cy="43" rx="21" ry="25" /><path d="M36 57 L22 40 Q24 25 36 35 Q48 25 50 40Z" fill="#8f303c" /></g></clipPath><linearGradient id="inkMetal0" x1="0" y1="0" x2="0.8" y2="1"><stop offset="0" stop-color="#a1c4da" /><stop offset=".35" stop-color="#86afc9" /><stop offset=".36" stop-color="#597586" /><stop offset="1" stop-color="#354650" /></linearGradient><linearGradient id="inkMetal1" x1="0" y1="0" x2="0.8" y2="1"><stop offset="0" stop-color="#a95863" /><stop offset=".35" stop-color="#8f303c" /><stop offset=".36" stop-color="#5f2028" /><stop offset="1" stop-color="#391318" /></linearGradient></defs><g transform="translate(0.5760000000000001 0.864)" stroke="#050409" stroke-width="1.728" stroke-linejoin="round"><g fill="url(#inkMetal0)" stroke="#211820" stroke-width="3" stroke-linejoin="round"><path d="M24 8 Q36 25 48 8" fill="none" stroke="#050409" /><ellipse cx="36" cy="43" rx="21" ry="25" fill="#050409" stroke="#050409" /><path d="M36 57 L22 40 Q24 25 36 35 Q48 25 50 40Z" fill="#050409" stroke="#050409" /></g></g><g><g fill="url(#inkMetal0)" stroke="#211820" stroke-width="3" stroke-linejoin="round"><path d="M24 8 Q36 25 48 8" fill="none" /><ellipse cx="36" cy="43" rx="21" ry="25" /><path d="M36 57 L22 40 Q24 25 36 35 Q48 25 50 40Z" fill="url(#inkMetal1)" /></g></g><g clip-path="url(#inkSilhouette)"><path d="M15.84 25.2L57.6 12.959999999999999" fill="none" stroke="#FFE3A0" stroke-width="0.9359999999999999" opacity=".9" /><path d="M15.84 25.2L57.6 12.959999999999999" fill="none" stroke="#FFF4DE" stroke-width="0.28800000000000003" opacity=".95" /></g><g><circle cx="56" cy="57" r="10" fill="#0D0A10" stroke="#76BFFF" stroke-width="1.2"/><g fill="none" stroke="#76BFFF" stroke-width="1.25" stroke-linecap="round" stroke-linejoin="round"><path d="M52 58V54Q56 49 60 54V58L58 61H54Z"/><path d="M54 55h.2M58 55h.2" stroke-width="2"/></g></g></svg>